<svg width="687" height="303" viewBox="0 0 687 303" fill="none" xmlns="http://www.w3.org/2000/svg">
<g filter="url(#filter0_d_16_15)">
<rect x="89" y="103" width="489" height="105" rx="52.5" fill="#1DB954"/>
</g>
<path d="M199.415 179V132.6H206.455V172.344H229.495V179H199.415ZM256.09 175.864C254.81 177.016 253.252 177.933 251.418 178.616C249.583 179.299 247.706 179.64 245.786 179.64C243.823 179.64 241.967 179.277 240.218 178.552C238.511 177.784 237.018 176.781 235.738 175.544C234.458 174.264 233.434 172.771 232.666 171.064C231.94 169.357 231.578 167.544 231.578 165.624C231.578 163.704 231.94 161.891 232.666 160.184C233.434 158.477 234.458 156.984 235.738 155.704C237.018 154.424 238.49 153.421 240.154 152.696C241.86 151.928 243.674 151.544 245.594 151.544C248.623 151.544 251.247 152.461 253.466 154.296C255.727 156.088 257.348 158.456 258.33 161.4C257.007 161.869 255.492 162.445 253.786 163.128C252.079 163.811 250.308 164.536 248.474 165.304C246.639 166.029 244.804 166.755 242.97 167.48C241.135 168.205 239.428 168.867 237.85 169.464C238.575 170.915 239.62 172.088 240.986 172.984C242.394 173.837 243.951 174.264 245.658 174.264C246.81 174.264 247.962 174.051 249.114 173.624C250.308 173.197 251.268 172.621 251.994 171.896L256.09 175.864ZM251.482 160.12C250.97 159.053 250.159 158.264 249.05 157.752C247.94 157.197 246.81 156.92 245.658 156.92C244.42 156.92 243.268 157.155 242.202 157.624C241.178 158.093 240.282 158.733 239.514 159.544C238.746 160.312 238.127 161.208 237.658 162.232C237.231 163.256 237.018 164.301 237.018 165.368C237.018 165.581 237.018 165.731 237.018 165.816C237.06 165.901 237.082 165.965 237.082 166.008C238.191 165.581 239.386 165.112 240.666 164.6C241.988 164.045 243.29 163.512 244.57 163C245.85 162.445 247.087 161.933 248.282 161.464C249.476 160.952 250.543 160.504 251.482 160.12ZM265.363 140.472H270.803V152.312H277.971V157.176H270.803V179H265.363V157.176H260.563V152.312H265.363V140.472ZM283.409 142.328L280.529 140.728C281.467 139.875 282.129 138.808 282.513 137.528C282.939 136.205 283.003 134.797 282.705 133.304L286.289 132.856C286.63 134.648 286.545 136.376 286.033 138.04C285.521 139.661 284.646 141.091 283.409 142.328ZM306.721 154.616L303.841 158.456C303.798 158.413 303.649 158.307 303.393 158.136C303.137 157.965 302.795 157.795 302.369 157.624C301.985 157.453 301.515 157.304 300.961 157.176C300.449 157.005 299.915 156.92 299.361 156.92C298.635 156.92 297.91 157.091 297.185 157.432C296.502 157.773 296.161 158.413 296.161 159.352C296.161 160.163 296.438 160.824 296.993 161.336C297.59 161.848 298.315 162.317 299.169 162.744C300.022 163.128 300.939 163.533 301.921 163.96C302.945 164.387 303.883 164.92 304.737 165.56C305.59 166.157 306.294 166.925 306.849 167.864C307.446 168.76 307.745 169.912 307.745 171.32C307.745 173.709 306.913 175.693 305.249 177.272C303.627 178.808 301.387 179.576 298.529 179.576C296.865 179.576 295.222 179.299 293.601 178.744C292.022 178.147 290.742 177.293 289.761 176.184C290.059 175.885 290.379 175.501 290.721 175.032C291.105 174.563 291.467 174.115 291.809 173.688C292.193 173.261 292.491 172.92 292.705 172.664C292.961 172.365 293.11 172.216 293.153 172.216C293.153 172.259 293.302 172.387 293.601 172.6C293.942 172.813 294.369 173.048 294.881 173.304C295.393 173.517 295.969 173.731 296.609 173.944C297.249 174.115 297.889 174.2 298.529 174.2C299.553 174.2 300.427 173.944 301.153 173.432C301.878 172.92 302.241 172.237 302.241 171.384C302.241 170.616 301.942 170.019 301.345 169.592C300.79 169.123 300.086 168.696 299.233 168.312C298.379 167.928 297.441 167.544 296.417 167.16C295.393 166.733 294.454 166.2 293.601 165.56C292.747 164.92 292.022 164.131 291.425 163.192C290.87 162.211 290.593 160.952 290.593 159.416C290.593 157.965 290.849 156.749 291.361 155.768C291.915 154.787 292.598 153.997 293.409 153.4C294.262 152.76 295.201 152.312 296.225 152.056C297.249 151.757 298.23 151.608 299.169 151.608C300.406 151.608 301.729 151.864 303.137 152.376C304.545 152.888 305.739 153.635 306.721 154.616ZM364.789 156.792V176.248C362.997 177.272 360.863 178.083 358.389 178.68C355.914 179.235 353.397 179.512 350.837 179.512C347.167 179.512 343.861 178.936 340.917 177.784C338.015 176.632 335.519 175.053 333.429 173.048C331.338 171 329.738 168.589 328.629 165.816C327.519 163.043 326.965 160.013 326.965 156.728C326.965 153.101 327.605 149.795 328.885 146.808C330.207 143.779 331.978 141.176 334.197 139C336.458 136.824 339.039 135.139 341.941 133.944C344.885 132.707 347.999 132.088 351.285 132.088C353.503 132.088 355.829 132.387 358.261 132.984C360.693 133.539 362.805 134.349 364.597 135.416L361.205 141.112C360.565 140.728 359.818 140.387 358.965 140.088C358.154 139.789 357.301 139.533 356.405 139.32C355.509 139.107 354.613 138.957 353.717 138.872C352.821 138.744 351.967 138.68 351.157 138.68C348.895 138.68 346.719 139.128 344.629 140.024C342.538 140.92 340.703 142.157 339.125 143.736C337.546 145.315 336.287 147.171 335.349 149.304C334.41 151.437 333.941 153.741 333.941 156.216C333.941 158.477 334.346 160.611 335.157 162.616C336.01 164.621 337.183 166.392 338.677 167.928C340.17 169.464 341.962 170.68 344.053 171.576C346.143 172.472 348.447 172.92 350.965 172.92C351.946 172.92 353.098 172.835 354.421 172.664C355.786 172.451 357.087 172.109 358.325 171.64V162.808H349.301V156.792H364.789ZM396.33 179.576H391.722L391.082 172.152C390.1 174.328 388.714 176.12 386.922 177.528C385.172 178.936 382.932 179.64 380.202 179.64C377.471 179.64 375.295 178.915 373.674 177.464C372.095 175.971 371.263 174.029 371.178 171.64V152.248H376.618V169.208C376.703 170.531 377.172 171.661 378.026 172.6C378.922 173.539 380.287 174.072 382.122 174.2C383.402 174.2 384.575 173.987 385.642 173.56C386.708 173.091 387.626 172.472 388.394 171.704C389.162 170.936 389.759 170.019 390.186 168.952C390.612 167.885 390.826 166.712 390.826 165.432V152.248H396.33V179.576ZM426.652 175.864C425.372 177.016 423.815 177.933 421.98 178.616C420.146 179.299 418.268 179.64 416.348 179.64C414.386 179.64 412.53 179.277 410.78 178.552C409.074 177.784 407.58 176.781 406.3 175.544C405.02 174.264 403.996 172.771 403.228 171.064C402.503 169.357 402.14 167.544 402.14 165.624C402.14 163.704 402.503 161.891 403.228 160.184C403.996 158.477 405.02 156.984 406.3 155.704C407.58 154.424 409.052 153.421 410.716 152.696C412.423 151.928 414.236 151.544 416.156 151.544C419.186 151.544 421.81 152.461 424.028 154.296C426.29 156.088 427.911 158.456 428.892 161.4C427.57 161.869 426.055 162.445 424.348 163.128C422.642 163.811 420.871 164.536 419.036 165.304C417.202 166.029 415.367 166.755 413.532 167.48C411.698 168.205 409.991 168.867 408.412 169.464C409.138 170.915 410.183 172.088 411.548 172.984C412.956 173.837 414.514 174.264 416.22 174.264C417.372 174.264 418.524 174.051 419.676 173.624C420.871 173.197 421.831 172.621 422.556 171.896L426.652 175.864ZM422.044 160.12C421.532 159.053 420.722 158.264 419.612 157.752C418.503 157.197 417.372 156.92 416.22 156.92C414.983 156.92 413.831 157.155 412.764 157.624C411.74 158.093 410.844 158.733 410.076 159.544C409.308 160.312 408.69 161.208 408.22 162.232C407.794 163.256 407.58 164.301 407.58 165.368C407.58 165.581 407.58 165.731 407.58 165.816C407.623 165.901 407.644 165.965 407.644 166.008C408.754 165.581 409.948 165.112 411.228 164.6C412.551 164.045 413.852 163.512 415.132 163C416.412 162.445 417.65 161.933 418.844 161.464C420.039 160.952 421.106 160.504 422.044 160.12ZM448.533 154.616L445.653 158.456C445.611 158.413 445.461 158.307 445.205 158.136C444.949 157.965 444.608 157.795 444.181 157.624C443.797 157.453 443.328 157.304 442.773 157.176C442.261 157.005 441.728 156.92 441.173 156.92C440.448 156.92 439.723 157.091 438.997 157.432C438.315 157.773 437.973 158.413 437.973 159.352C437.973 160.163 438.251 160.824 438.805 161.336C439.403 161.848 440.128 162.317 440.981 162.744C441.835 163.128 442.752 163.533 443.733 163.96C444.757 164.387 445.696 164.92 446.549 165.56C447.403 166.157 448.107 166.925 448.661 167.864C449.259 168.76 449.557 169.912 449.557 171.32C449.557 173.709 448.725 175.693 447.061 177.272C445.44 178.808 443.2 179.576 440.341 179.576C438.677 179.576 437.035 179.299 435.413 178.744C433.835 178.147 432.555 177.293 431.573 176.184C431.872 175.885 432.192 175.501 432.533 175.032C432.917 174.563 433.28 174.115 433.621 173.688C434.005 173.261 434.304 172.92 434.517 172.664C434.773 172.365 434.923 172.216 434.965 172.216C434.965 172.259 435.115 172.387 435.413 172.6C435.755 172.813 436.181 173.048 436.693 173.304C437.205 173.517 437.781 173.731 438.421 173.944C439.061 174.115 439.701 174.2 440.341 174.2C441.365 174.2 442.24 173.944 442.965 173.432C443.691 172.92 444.053 172.237 444.053 171.384C444.053 170.616 443.755 170.019 443.157 169.592C442.603 169.123 441.899 168.696 441.045 168.312C440.192 167.928 439.253 167.544 438.229 167.16C437.205 166.733 436.267 166.2 435.413 165.56C434.56 164.92 433.835 164.131 433.237 163.192C432.683 162.211 432.405 160.952 432.405 159.416C432.405 157.965 432.661 156.749 433.173 155.768C433.728 154.787 434.411 153.997 435.221 153.4C436.075 152.76 437.013 152.312 438.037 152.056C439.061 151.757 440.043 151.608 440.981 151.608C442.219 151.608 443.541 151.864 444.949 152.376C446.357 152.888 447.552 153.635 448.533 154.616ZM470.283 154.616L467.403 158.456C467.361 158.413 467.211 158.307 466.955 158.136C466.699 157.965 466.358 157.795 465.931 157.624C465.547 157.453 465.078 157.304 464.523 157.176C464.011 157.005 463.478 156.92 462.923 156.92C462.198 156.92 461.473 157.091 460.747 157.432C460.065 157.773 459.723 158.413 459.723 159.352C459.723 160.163 460.001 160.824 460.555 161.336C461.153 161.848 461.878 162.317 462.731 162.744C463.585 163.128 464.502 163.533 465.483 163.96C466.507 164.387 467.446 164.92 468.299 165.56C469.153 166.157 469.857 166.925 470.411 167.864C471.009 168.76 471.307 169.912 471.307 171.32C471.307 173.709 470.475 175.693 468.811 177.272C467.19 178.808 464.95 179.576 462.091 179.576C460.427 179.576 458.785 179.299 457.163 178.744C455.585 178.147 454.305 177.293 453.323 176.184C453.622 175.885 453.942 175.501 454.283 175.032C454.667 174.563 455.03 174.115 455.371 173.688C455.755 173.261 456.054 172.92 456.267 172.664C456.523 172.365 456.673 172.216 456.715 172.216C456.715 172.259 456.865 172.387 457.163 172.6C457.505 172.813 457.931 173.048 458.443 173.304C458.955 173.517 459.531 173.731 460.171 173.944C460.811 174.115 461.451 174.2 462.091 174.2C463.115 174.2 463.99 173.944 464.715 173.432C465.441 172.92 465.803 172.237 465.803 171.384C465.803 170.616 465.505 170.019 464.907 169.592C464.353 169.123 463.649 168.696 462.795 168.312C461.942 167.928 461.003 167.544 459.979 167.16C458.955 166.733 458.017 166.2 457.163 165.56C456.31 164.92 455.585 164.131 454.987 163.192C454.433 162.211 454.155 160.952 454.155 159.416C454.155 157.965 454.411 156.749 454.923 155.768C455.478 154.787 456.161 153.997 456.971 153.4C457.825 152.76 458.763 152.312 459.787 152.056C460.811 151.757 461.793 151.608 462.731 151.608C463.969 151.608 465.291 151.864 466.699 152.376C468.107 152.888 469.302 153.635 470.283 154.616Z" fill="#F9F9F9"/>
<defs>
<filter id="filter0_d_16_15" x="0" y="0" width="687" height="303" filterUnits="userSpaceOnUse" color-interpolation-filters="sRGB">
<feFlood flood-opacity="0" result="BackgroundImageFix"/>
<feColorMatrix in="SourceAlpha" type="matrix" values="0 0 0 0 0 0 0 0 0 0 0 0 0 0 0 0 0 0 127 0" result="hardAlpha"/>
<feMorphology radius="5" operator="dilate" in="SourceAlpha" result="effect1_dropShadow_16_15"/>
<feOffset dx="10" dy="-4"/>
<feGaussianBlur stdDeviation="47"/>
<feComposite in2="hardAlpha" operator="out"/>
<feColorMatrix type="matrix" values="0 0 0 0 0.113725 0 0 0 0 0.72549 0 0 0 0 0.329412 0 0 0 0.2 0"/>
<feBlend mode="normal" in2="BackgroundImageFix" result="effect1_dropShadow_16_15"/>
<feBlend mode="normal" in="SourceGraphic" in2="effect1_dropShadow_16_15" result="shape"/>
</filter>
</defs>
</svg>
